<?xml version="1.0" standalone="no"?>
<!DOCTYPE svg PUBLIC "-//W3C//DTD SVG 20010904//EN"
 "http://www.w3.org/TR/2001/REC-SVG-20010904/DTD/svg10.dtd">
<svg version="1.0" xmlns="http://www.w3.org/2000/svg"
 width="612.000000pt" height="612.000000pt" viewBox="0 0 612.000000 612.000000"
 preserveAspectRatio="xMidYMid meet">

<g transform="translate(0.000000,612.000000) scale(0.100000,-0.100000)"
fill="#000000" stroke="none">
<path d="M3628 5031 c-171 -55 -291 -194 -318 -369 -7 -40 -9 -80 -6 -89 4
-10 -8 -29 -35 -54 -40 -38 -41 -39 -34 -89 5 -40 11 -50 26 -50 32 0 1040
178 1047 185 2 2 -1 28 -8 59 -11 53 -13 56 -51 67 -47 14 -49 17 -79 94 -45
113 -182 225 -311 254 -67 16 -168 12 -231 -8z m366 -287 c41 -62 46 -74 37
-93 -19 -35 -46 -25 -90 34 -23 30 -45 55 -48 55 -4 0 -70 -12 -146 -26 -152
-29 -142 -22 -169 -114 -11 -38 -17 -46 -41 -48 -18 -2 -29 2 -34 14 -9 25 25
159 46 178 20 19 303 75 361 73 32 -2 40 -9 84 -73z"/>
<path d="M2014 4691 c-31 -19 -74 -67 -74 -82 0 -5 158 -9 350 -9 207 0 350 4
350 9 0 18 -50 69 -84 85 -28 13 -73 16 -273 16 -215 0 -241 -2 -269 -19z"/>
<path d="M1850 4415 l0 -85 -150 0 -150 0 0 -130 0 -130 150 0 150 0 0 -90 0
-90 120 0 120 0 0 -70 0 -70 215 0 215 0 0 45 0 45 -117 0 c-128 1 -153 9
-153 52 0 44 15 48 162 48 138 0 138 0 150 -25 10 -23 16 -25 84 -25 l73 0 3
84 3 85 -26 -6 c-44 -8 -50 12 -47 153 l3 129 26 3 c44 5 50 -15 47 -147 l-3
-121 103 0 102 0 0 130 0 130 -104 0 -104 0 -1 73 c0 39 0 78 0 85 -1 9 -95
12 -436 12 l-435 0 0 -85z m78 -211 c2 -109 0 -133 -13 -144 -12 -10 -21 -10
-40 -2 -25 11 -25 14 -25 131 0 144 3 153 44 149 l31 -3 3 -131z"/>
<path d="M4095 4424 c-5 -2 -165 -30 -354 -63 -189 -33 -346 -62 -348 -65 -11
-11 30 -104 65 -151 48 -64 107 -108 179 -135 84 -31 204 -26 290 14 127 58
213 186 221 328 5 77 4 78 -19 77 -13 0 -28 -2 -34 -5z"/>
<path d="M4182 4128 c-60 -106 -187 -201 -303 -227 -24 -6 -76 -11 -115 -11
l-71 0 -22 -72 c-25 -85 -46 -263 -34 -296 9 -23 9 -23 70 17 63 41 106 93
119 144 15 62 94 57 94 -6 0 -48 -45 -131 -95 -175 -119 -104 -347 -177 -600
-191 -138 -8 -182 -21 -209 -64 -54 -84 -14 -191 82 -216 49 -14 302 1 442 25
401 69 642 235 742 511 15 42 22 94 27 188 6 127 6 130 33 144 24 14 28 14 48
-4 21 -19 22 -26 18 -150 -6 -143 -31 -239 -89 -342 -92 -160 -289 -312 -484
-373 -22 -7 -44 -16 -48 -20 -5 -4 4 -79 19 -166 31 -185 29 -249 -12 -489
-30 -181 -43 -469 -25 -585 19 -125 122 -532 145 -574 29 -54 76 -80 142 -79
78 2 121 32 144 100 9 26 4 67 -31 240 -39 194 -42 222 -47 413 -5 247 7 377
39 403 12 9 29 17 38 17 39 0 53 -25 72 -131 29 -158 72 -303 143 -477 202
-497 199 -492 262 -512 20 -7 59 -10 86 -8 59 6 112 51 130 111 15 49 9 73
-82 309 -129 334 -200 678 -186 900 4 57 9 141 12 188 9 135 -52 708 -101 952
-38 190 -83 280 -216 441 -107 131 -101 128 -137 65z"/>
<path d="M3021 4034 c-17 -46 -55 -64 -136 -64 l-65 0 0 -63 0 -63 86 -72
c145 -119 225 -153 463 -197 185 -34 171 -38 171 43 0 58 17 166 35 222 5 15
-5 18 -77 23 -155 12 -292 64 -404 156 l-61 49 -12 -34z"/>
<path d="M1840 3535 l0 -115 124 0 124 0 7 -47 c9 -62 25 -92 73 -135 57 -51
130 -67 201 -43 83 27 150 113 151 193 l0 32 115 0 115 0 0 115 0 115 -455 0
-455 0 0 -115z"/>
<path d="M1676 2799 c-111 -292 -194 -525 -190 -529 5 -5 38 -20 74 -34 36
-13 88 -33 116 -44 l52 -21 52 137 c29 75 74 193 101 262 229 592 223 572 164
660 -19 29 -35 61 -35 71 0 17 -8 19 -68 19 l-68 0 -198 -521z"/>
<path d="M2585 3261 c-26 -56 -28 -67 -27 -180 1 -85 6 -131 17 -158 9 -21 74
-189 145 -373 71 -184 132 -343 135 -352 10 -25 20 -23 126 18 52 20 104 40
116 45 21 8 20 11 -48 191 -39 101 -90 235 -114 298 -24 63 -69 180 -100 260
-31 80 -70 182 -87 228 l-30 82 -52 0 -52 0 -29 -59z"/>
<path d="M2428 3109 c-51 -29 -159 -31 -231 -3 -16 6 -17 -37 -17 -585 l0
-591 140 0 140 0 0 595 c0 327 -3 595 -7 595 -5 0 -16 -5 -25 -11z"/>
<path d="M1480 2128 c-40 -92 -260 -685 -260 -700 0 -55 97 -90 134 -49 16 17
276 678 280 709 0 8 -26 24 -63 38 -78 29 -79 29 -91 2z"/>
<path d="M3018 2127 c-32 -12 -58 -27 -58 -34 0 -11 34 -102 153 -413 24 -63
59 -153 77 -200 17 -47 41 -93 52 -102 46 -40 128 -6 128 53 0 14 -53 165
-119 335 -65 170 -124 326 -132 347 -15 43 -22 44 -101 14z"/>
<path d="M2240 1475 l0 -356 25 -24 c32 -33 78 -33 110 0 l25 24 0 356 0 355
-80 0 -80 0 0 -355z"/>
</g>
</svg>
